<?xml version="1.0" encoding="UTF-8" standalone="no"?>
<!-- Created with Inkscape (http://www.inkscape.org/) -->

<svg
   width="882.91931"
   height="547.33258"
   viewBox="0 0 233.60574 144.81508"
   preserveAspectRatio="none"
   version="1.1"
   id="svg1"
   xml:space="preserve"
   inkscape:version="1.4.2 (f4327f4, 2025-05-13)"
   sodipodi:docname="fibseq.svg"
   xmlns:inkscape="http://www.inkscape.org/namespaces/inkscape"
   xmlns:sodipodi="http://sodipodi.sourceforge.net/DTD/sodipodi-0.dtd"
   xmlns="http://www.w3.org/2000/svg"
   xmlns:svg="http://www.w3.org/2000/svg"><sodipodi:namedview
     id="namedview1"
     pagecolor="#ffffff"
     bordercolor="#000000"
     borderopacity="0.25"
     inkscape:showpageshadow="2"
     inkscape:pageopacity="0.0"
     inkscape:pagecheckerboard="0"
     inkscape:deskcolor="#d1d1d1"
     inkscape:document-units="mm"
     inkscape:zoom="1.4979692"
     inkscape:cx="496.00485"
     inkscape:cy="307.4162"
     inkscape:window-width="2560"
     inkscape:window-height="1369"
     inkscape:window-x="1072"
     inkscape:window-y="259"
     inkscape:window-maximized="1"
     inkscape:current-layer="layer1" /><defs
     id="defs1"><inkscape:path-effect
       effect="spiro"
       id="path-effect11"
       is_visible="true"
       lpeversion="1" /><inkscape:path-effect
       effect="spiro"
       id="path-effect10"
       is_visible="true"
       lpeversion="1" /><inkscape:path-effect
       effect="spiro"
       id="path-effect9"
       is_visible="true"
       lpeversion="1" /><inkscape:path-effect
       effect="spiro"
       id="path-effect8"
       is_visible="true"
       lpeversion="1" /><inkscape:path-effect
       effect="spiro"
       id="path-effect7"
       is_visible="true"
       lpeversion="1" /><inkscape:path-effect
       effect="spiro"
       id="path-effect6"
       is_visible="true"
       lpeversion="1" /><inkscape:path-effect
       effect="spiro"
       id="path-effect5"
       is_visible="true"
       lpeversion="1" /><inkscape:path-effect
       effect="spiro"
       id="path-effect4"
       is_visible="true"
       lpeversion="1" /><inkscape:path-effect
       effect="spiro"
       id="path-effect3"
       is_visible="true"
       lpeversion="1" /><inkscape:path-effect
       effect="spiro"
       id="path-effect2"
       is_visible="true"
       lpeversion="1" /><inkscape:path-effect
       effect="spiro"
       id="path-effect1"
       is_visible="true"
       lpeversion="1" /></defs><g
     inkscape:label="Layer 1"
     inkscape:groupmode="layer"
     id="layer1"
     transform="translate(-1.038602,-74.595706)"><path
       style="fill:#000000;fill-opacity:0;stroke:#000000;stroke-width:0.8;stroke-linecap:square;stroke-linejoin:round;stroke-dasharray:none;stroke-opacity:1"
       d="M 145.14137,219.01078 V 75.248817"
       id="path1"
       inkscape:path-effect="#path-effect1"
       inkscape:original-d="m 145.14137,219.01078 c 0,-47.97953 0,-95.87075 0,-143.761963" /><path
       style="fill:#000000;fill-opacity:0;stroke:#000000;stroke-width:0.8;stroke-linecap:square;stroke-linejoin:round;stroke-dasharray:none;stroke-opacity:1"
       d="m 145.15786,163.97451 89.03355,0.008"
       id="path2"
       inkscape:path-effect="#path-effect2"
       inkscape:original-d="m 145.15786,163.97451 89.03355,0.008"
       sodipodi:nodetypes="cc" /><path
       style="fill:#000000;fill-opacity:0;stroke:#000000;stroke-width:0.8;stroke-linecap:square;stroke-linejoin:round;stroke-dasharray:none;stroke-opacity:1"
       d="m 145.20382,184.90423 h 34.03385"
       id="path3"
       inkscape:path-effect="#path-effect3"
       inkscape:original-d="m 145.20382,184.90423 c 11.30299,0 22.66842,0 34.03385,0" /><path
       style="fill:#000000;fill-opacity:0;stroke:#000000;stroke-width:0.802226;stroke-linecap:square;stroke-linejoin:round;stroke-dasharray:none;stroke-opacity:1"
       d="M 179.30012,163.92189 V 218.8288"
       id="path4"
       inkscape:path-effect="#path-effect4"
       inkscape:original-d="M 179.30012,163.92189 V 218.8288"
       sodipodi:nodetypes="cc"
       transform="matrix(0.99722567,0,0,0.99722567,0.49743823,0.60821369)" /><path
       style="fill:#000000;fill-opacity:0;stroke:#000000;stroke-width:0.8;stroke-linecap:square;stroke-linejoin:round;stroke-dasharray:none;stroke-opacity:1"
       d="m 166.18306,164.04855 v 20.82003"
       id="path5"
       inkscape:path-effect="#path-effect5"
       inkscape:original-d="m 166.18306,164.04855 c 0,6.92529 0,13.87266 0,20.82003" /><path
       style="fill:#000000;fill-opacity:0;stroke:#000000;stroke-width:0.804966;stroke-linecap:square;stroke-linejoin:round;stroke-dasharray:none;stroke-opacity:1"
       d="m 166.27138,177.00863 h 13.11463"
       id="path6"
       inkscape:path-effect="#path-effect6"
       inkscape:original-d="m 166.27138,177.00863 c 4.3421,0 8.72837,0 13.11463,0"
       transform="matrix(0.99383051,0,0,0.99383051,1.0221084,1.0920535)" /><path
       style="fill:#000000;fill-opacity:0;stroke:#000000;stroke-width:0.809731;stroke-linecap:square;stroke-linejoin:round;stroke-dasharray:none;stroke-opacity:1"
       d="m 166.13891,179.90092 h 5.01182"
       id="path7"
       inkscape:path-effect="#path-effect7"
       inkscape:original-d="m 166.13891,179.90092 c 1.6706,0 3.34121,0 5.01182,0"
       transform="matrix(0.98798301,0,0,0.98798301,2.0597215,2.1618683)" /><path
       style="fill:#000000;fill-opacity:0;stroke:#000000;stroke-width:0.81062;stroke-linecap:square;stroke-linejoin:round;stroke-dasharray:none;stroke-opacity:1"
       d="m 171.21696,177.03071 v 7.92618"
       id="path8"
       inkscape:path-effect="#path-effect8"
       inkscape:original-d="m 171.21696,177.03071 c 0,2.61263 0,5.2694 0,7.92618"
       transform="matrix(0.98689887,0,0,0.98689887,2.2431363,2.3160277)" /><path
       style="fill:#000000;fill-opacity:0;stroke:#000000;stroke-width:0.8;stroke-linecap:square;stroke-linejoin:round;stroke-dasharray:none;stroke-opacity:1"
       d="m 169.14158,177.20734 v 2.58318"
       id="path9"
       inkscape:path-effect="#path-effect9"
       inkscape:original-d="m 169.14158,177.20734 c 0,0.86106 0,1.72212 0,2.58318" /><path
       style="fill:#000000;fill-opacity:0;stroke:#000000;stroke-width:0.8;stroke-linecap:square;stroke-linejoin:round;stroke-dasharray:none;stroke-opacity:1"
       d="m 169.16366,178.84115 h 1.98707"
       id="path10"
       inkscape:path-effect="#path-effect10"
       inkscape:original-d="m 169.16366,178.84115 c 0.66236,0 1.32471,0 1.98707,0" /><path
       style="fill:#000000;fill-opacity:0;stroke:#000000;stroke-width:0.8;stroke-linecap:square;stroke-linejoin:round;stroke-dasharray:none;stroke-opacity:1"
       d="m 1.4553599,218.95779 c -0.073724,-4.64111 0.095854,-9.28608 0.5078055,-13.90946 1.8557776,-20.82763 8.6841376,-41.13296 19.2992886,-59.14831 2.372523,-4.02649 4.931997,-7.94272 7.664244,-11.73433 2.483046,-3.44579 5.109391,-6.78945 7.899601,-9.99159 3.366945,-3.86402 6.97038,-7.51948 10.740958,-10.99075 4.406173,-4.05642 9.044194,-7.86448 13.925778,-11.33421 5.266222,-3.743122 10.809954,-7.088324 16.517344,-10.116485 4.848116,-2.572258 9.819258,-4.918514 14.924937,-6.931665 5.430072,-2.141058 11.008064,-3.903378 16.673464,-5.308032 5.07411,-1.258053 10.21774,-2.229376 15.39329,-2.966253 4.88744,-0.695856 9.80587,-1.183025 14.7376,-1.405067 4.68382,-0.210881 9.38504,-0.182136 14.05067,0.281013 4.97009,0.493372 9.88414,1.478424 14.70637,2.778911 3.68858,0.994757 7.32991,2.175494 10.86586,3.621951 4.27485,1.748719 8.38959,3.883981 12.30214,6.338415 4.61279,2.893708 8.94132,6.228072 13.02029,9.835471 3.02902,2.678831 5.92676,5.513761 8.5553,8.586521 2.60342,3.0434 4.93631,6.31285 7.05656,9.71058 2.37568,3.80707 4.48789,7.78035 6.27597,11.89623 1.6303,3.75269 2.98997,7.62085 4.12153,11.55278 1.09217,3.79508 1.97272,7.65245 2.59156,11.55277 0.82489,5.19896 1.18352,10.48591 0.81182,15.73676 -0.30013,4.23983 -1.07627,8.44408 -2.27933,12.52071 -1.17504,3.98167 -2.75999,7.84825 -4.80845,11.4591 -2.27578,4.01155 -5.1148,7.69164 -8.30551,11.02197 -2.7018,2.82002 -5.66412,5.39892 -8.89876,7.58737 -3.05957,2.07001 -6.35394,3.78462 -9.77302,5.18313 -3.87487,1.58494 -7.91938,2.76741 -12.05236,3.43461 -2.84703,0.45961 -5.73428,0.67452 -8.61774,0.62448 -3.08181,-0.0535 -6.16537,-0.41122 -9.14855,-1.1865 -3.32517,-0.86416 -6.51795,-2.24887 -9.39834,-4.12153 -3.58788,-2.33263 -6.67047,-5.40977 -9.14855,-8.89877 -3.00927,-4.23689 -5.14543,-9.11636 -6.02618,-14.23801 -0.56246,-3.27079 -0.61145,-6.64825 0.0624,-9.89792 0.76382,-3.68357 2.47816,-7.19138 5.05824,-9.92914 1.91567,-2.03275 4.28153,-3.6207 6.838,-4.74601 2.67085,-1.17566 5.57472,-1.85624 8.49284,-1.84219 1.75622,0.008 3.52635,0.27194 5.15192,0.93671 1.82189,0.74505 3.42232,1.98126 4.71478,3.46583 1.61354,1.85338 2.77132,4.12955 3.1536,6.55698 0.30241,1.9203 0.10395,3.95166 -0.7806,5.68272 -0.59327,1.16102 -1.48552,2.16578 -2.56034,2.9038 -1.32138,0.90732 -2.92491,1.40788 -4.52744,1.37385 -0.90997,-0.0193 -1.82774,-0.21262 -2.62279,-0.6557 -0.73296,-0.40847 -1.34655,-1.02438 -1.76559,-1.75135 -0.41904,-0.72697 -0.64402,-1.5625 -0.66206,-2.4014 -0.0102,-0.47669 0.0462,-0.95866 0.20915,-1.40674 0.16298,-0.44808 0.4365,-0.86162 0.81343,-1.15361 0.51732,-0.40074 1.19585,-0.54832 1.85,-0.53081 0.31337,0.008 0.62773,0.0525 0.9235,0.15635 0.29576,0.10389 0.57291,0.26944 0.786,0.49936 0.28694,0.3096 0.44725,0.73327 0.43714,1.15527"
       id="path11"
       inkscape:path-effect="#path-effect11"
       inkscape:original-d="m 1.4553599,218.95779 c 0.1692685,-4.62177 0.338537,-9.26561 0.5078055,-13.90946 0.1692688,-4.64384 25.7167736,-78.86441 19.2992886,-59.14831 -6.417484,19.7161 5.099087,-7.82289 7.664244,-11.73433 2.565153,-3.91145 5.255992,-6.67147 7.899601,-9.99159 2.643608,-3.32012 7.150229,-7.31676 10.740958,-10.99075 3.590727,-3.67399 9.304666,-7.54573 13.925778,-11.33421 4.621109,-3.788479 11.021972,-6.765139 16.517344,-10.116485 5.495375,-3.351346 9.929143,-4.62111 14.924937,-6.931665 4.995796,-2.310555 11.146874,-3.538688 16.673464,-5.308032 5.5266,-1.769344 10.24138,-1.946279 15.39329,-2.966253 5.15192,-1.019975 9.83547,-0.957527 14.7376,-1.405067 4.90212,-0.447541 9.36711,0.176934 14.05067,0.281013 4.68356,0.104079 9.81466,1.863015 14.70637,2.778911 4.89172,0.915895 7.2439,2.393818 10.86586,3.621951 3.62195,1.228133 8.1702,4.246425 12.30214,6.338415 4.13194,2.091989 8.71142,6.556979 13.02029,9.835471 4.30887,3.278491 5.70353,5.703531 8.5553,8.586521 2.85176,2.88299 4.67315,6.49453 7.05656,9.71058 2.38341,3.21604 4.19439,7.94123 6.27597,11.89623 2.08158,3.95501 2.74768,7.68104 4.12153,11.55278 1.37384,3.87174 1.73812,7.70185 2.59156,11.55277 0.85345,3.85093 0.53081,10.50158 0.81182,15.73676 0.28101,5.23517 -1.52996,8.34714 -2.27933,12.52071 -0.74937,4.17357 -3.19523,7.62899 -4.80845,11.4591 -1.61323,3.83011 -5.54742,7.33757 -8.30551,11.02197 -2.75809,3.6844 -5.91169,5.08947 -8.89876,7.58737 -2.98707,2.49789 -6.52576,3.43461 -9.77302,5.18313 -3.24727,1.74853 -8.03491,2.28974 -12.05236,3.43461 -4.01745,1.14487 -5.75557,0.42673 -8.61774,0.62448 -2.86218,0.19775 -6.09904,-0.81182 -9.14855,-1.1865 -3.04952,-0.37469 -6.24475,-2.71647 -9.39834,-4.12153 -3.1536,-1.40507 -6.08863,-5.96373 -9.14855,-8.89877 -3.05993,-2.93502 -4.01745,-9.492 -6.02618,-14.23801 -2.00872,-4.746 0.0208,-6.5778 0.0624,-9.89792 0.0416,-3.32012 3.37216,-6.64024 5.05824,-9.92914 1.68608,-3.2889 4.56907,-3.12237 6.838,-4.74601 2.26892,-1.62363 5.64108,-1.24894 8.49284,-1.84219 2.85177,-0.59326 3.45543,0.61406 5.15192,0.93671 1.69649,0.32264 3.12237,2.30015 4.71478,3.46583 1.59241,1.16569 2.12321,4.39214 3.1536,6.55698 1.03038,2.16485 -0.54121,3.79889 -0.7806,5.68272 -0.23938,1.88383 -1.69649,1.93587 -2.56034,2.9038 -0.86386,0.96794 -3.03911,0.90549 -4.52744,1.37385 -1.48833,0.46835 -1.75894,-0.45795 -2.62279,-0.6557 -0.86386,-0.19775 -1.60542,-2.72687 -2.42765,-4.15275 -0.82222,-1.42589 0.68953,-1.72772 1.02258,-2.56035 0.33305,-0.83263 1.53521,-1.09764 1.85,-0.53081 0.92696,1.66916 1.13707,0.40592 1.7095,0.65571 0.57243,0.24979 0.29142,0.77018 0.43714,1.15527"
       sodipodi:nodetypes="cssssssssssssssssssssssssssssssssssssssssssssssssc" /></g></svg>
